<svg width="48" height="48" viewBox="0 0 48 48" fill="none" xmlns="http://www.w3.org/2000/svg">
<path d="M9.25648 25.6039L9.26033 25.6051C12.6226 26.6749 16.2248 24.8676 17.2992 21.4938C17.8221 19.8862 17.6858 18.1369 16.9202 16.6297C16.1544 15.1219 14.8215 13.9798 13.2142 13.4541L13.2114 13.4532C9.87226 12.3826 6.24601 14.1901 5.17149 17.5641C4.64863 19.1717 4.78491 20.9211 5.55049 22.4283C6.31631 23.936 7.64922 25.0781 9.25648 25.6039ZM41.9103 17.4962L41.9104 17.4961L41.9079 17.4886C40.8084 14.1903 37.2093 12.3827 33.87 13.453C33.0699 13.7079 32.3281 14.1188 31.6876 14.6619C31.047 15.2051 30.5203 15.8698 30.138 16.6178C29.7558 17.3657 29.5255 18.1819 29.4604 19.0193C29.3954 19.8565 29.4969 20.6983 29.759 21.4961C30.2847 23.1033 31.4268 24.4362 32.9346 25.2021C34.4419 25.9677 36.1915 26.1039 37.7992 25.5809C41.1496 24.5061 42.9791 20.8807 41.9103 17.4962ZM19.6808 28.8174L19.6808 28.8173C18.3116 27.8274 16.6064 27.4194 14.9375 27.6824C13.2686 27.9454 11.7715 28.8581 10.7731 30.2211L10.7714 30.2235C8.70445 33.0815 9.3417 37.0632 12.1989 39.1313C15.0341 41.2243 19.0666 40.5868 21.1113 37.7257C23.1778 34.867 22.5395 30.8848 19.6808 28.8174ZM23.5287 0.500732C26.5528 0.500732 29.5473 1.09637 32.3412 2.25363C35.135 3.4109 37.6736 5.10713 39.812 7.24547C41.9503 9.38382 43.6466 11.9224 44.8038 14.7163C45.9611 17.5102 46.5567 20.5046 46.5567 23.5287C46.5567 29.6361 44.1306 35.4934 39.812 39.812C35.4934 44.1306 29.6361 46.5567 23.5287 46.5567C20.5046 46.5567 17.5102 45.9611 14.7163 44.8038C11.9224 43.6466 9.38382 41.9503 7.24547 39.812C2.92689 35.4934 0.500732 29.6361 0.500732 23.5287C0.500732 17.4213 2.92689 11.5641 7.24547 7.24547C11.5641 2.92689 17.4213 0.500732 23.5287 0.500732ZM23.5287 4.20633C21.8361 4.20633 20.2128 4.87872 19.016 6.07558C17.8191 7.27243 17.1467 8.89572 17.1467 10.5883C17.1467 12.2809 17.8191 13.9042 19.016 15.1011C20.2128 16.2979 21.8361 16.9703 23.5287 16.9703C25.2213 16.9703 26.8446 16.2979 28.0415 15.1011C29.2383 13.9042 29.9107 12.2809 29.9107 10.5883C29.9107 8.89572 29.2383 7.27243 28.0415 6.07558C26.8446 4.87872 25.2213 4.20633 23.5287 4.20633ZM34.881 39.1322C37.7391 37.0643 38.3768 33.082 36.3097 30.2237C35.8185 29.544 35.1978 28.9682 34.4832 28.5294C33.7686 28.0906 32.9742 27.7975 32.1459 27.667C31.3176 27.5365 30.4716 27.5711 29.6567 27.7688C28.8423 27.9664 28.075 28.3231 27.399 28.8182C26.7201 29.3087 26.1445 29.9282 25.705 30.6412C25.2653 31.3548 24.9706 32.1481 24.8378 32.9757C24.705 33.8033 24.7367 34.6489 24.9311 35.4643C25.1253 36.2785 25.4779 37.0465 25.9688 37.7245C27.9938 40.5922 32.0514 41.1965 34.881 39.1322ZM23.5287 19.4995C22.4601 19.4995 21.4353 19.924 20.6797 20.6797C19.924 21.4353 19.4995 22.4601 19.4995 23.5287C19.4995 24.5973 19.924 25.6222 20.6797 26.3778C21.4353 27.1334 22.4601 27.5579 23.5287 27.5579C24.5973 27.5579 25.6222 27.1334 26.3778 26.3778C27.1334 25.6222 27.5579 24.5973 27.5579 23.5287C27.5579 22.4601 27.1334 21.4353 26.3778 20.6797C25.6222 19.924 24.5973 19.4995 23.5287 19.4995Z" fill="#242424" stroke="#2A2A2A"/>
</svg>
