<svg width="116" height="26" viewBox="0 0 116 26" fill="none" xmlns="http://www.w3.org/2000/svg">
<path d="M8.72418 15.3641L11.5353 3.10617H13.1158L12.2833 7.87182L9.23091 20.6727H7.6504L8.72418 15.3641ZM5.94925 3.10617L8.14506 15.1228L8.79657 20.6727H7.24019L3.74136 3.10617H5.94925ZM16.6991 15.1108L18.8467 3.10617H21.0545L17.5678 20.6727H16.0114L16.6991 15.1108ZM13.3692 3.10617L16.0959 15.3641L17.1455 20.6727H15.565L12.6453 7.87182L11.8128 3.10617H13.3692ZM29.2949 18.4407V11.3586C29.2949 10.8438 29.2145 10.4296 29.0536 10.1159C28.9008 9.80221 28.6675 9.57297 28.3538 9.42819C28.0482 9.28341 27.6621 9.21102 27.1956 9.21102C26.7452 9.21102 26.3551 9.30352 26.0253 9.48852C25.7036 9.67351 25.4542 9.91883 25.2773 10.2245C25.1084 10.5301 25.0239 10.8679 25.0239 11.2379H22.8884C22.8884 10.7714 22.9889 10.3089 23.19 9.85047C23.3992 9.392 23.6968 8.97777 24.0828 8.60778C24.4689 8.22974 24.9314 7.93214 25.4703 7.71497C26.0172 7.48976 26.6285 7.37715 27.3042 7.37715C28.1085 7.37715 28.8203 7.50987 29.4397 7.7753C30.059 8.03268 30.5456 8.45496 30.8995 9.04211C31.2534 9.62927 31.4304 10.4095 31.4304 11.3827V17.8254C31.4304 18.2597 31.4625 18.7222 31.5269 19.2129C31.5993 19.7035 31.6998 20.1258 31.8285 20.4797V20.6727H29.6206C29.5161 20.4153 29.4356 20.0735 29.3793 19.6472C29.323 19.2129 29.2949 18.8107 29.2949 18.4407ZM29.6327 12.7581L29.6568 14.3266H28.1728C27.6661 14.3266 27.2036 14.3829 26.7854 14.4955C26.3752 14.6081 26.0213 14.773 25.7237 14.9901C25.4261 15.1993 25.1968 15.4607 25.036 15.7743C24.8831 16.088 24.8067 16.446 24.8067 16.8481C24.8067 17.3709 24.8791 17.7892 25.0239 18.1029C25.1687 18.4085 25.3858 18.6297 25.6754 18.7664C25.965 18.9032 26.3309 18.9716 26.7733 18.9716C27.3122 18.9716 27.7868 18.8469 28.197 18.5975C28.6072 18.3482 28.9249 18.0466 29.1501 17.6927C29.3834 17.3388 29.4919 17.009 29.4759 16.7033L29.9464 17.7047C29.9142 18.0184 29.8097 18.3603 29.6327 18.7303C29.4638 19.0922 29.2265 19.4421 28.9209 19.7799C28.6152 20.1097 28.2533 20.3831 27.835 20.6003C27.4248 20.8094 26.9623 20.914 26.4476 20.914C25.6915 20.914 25.0279 20.7692 24.4568 20.4797C23.8938 20.1901 23.4555 19.7638 23.1418 19.2008C22.8281 18.6378 22.6712 17.942 22.6712 17.1136C22.6712 16.4862 22.7798 15.9071 22.997 15.3762C23.2142 14.8453 23.5359 14.3869 23.9622 14.0008C24.3885 13.6067 24.9234 13.301 25.5668 13.0839C26.2183 12.8667 26.9704 12.7581 27.823 12.7581H29.6327ZM39.5139 7.61845V9.33167H33.4211V7.61845H39.5139ZM35.4118 4.44538H37.5473V17.4393C37.5473 17.8817 37.5996 18.2155 37.7041 18.4407C37.8167 18.6659 37.9575 18.8147 38.1264 18.8871C38.2953 18.9595 38.4763 18.9957 38.6693 18.9957C38.8141 18.9957 38.975 18.9796 39.1519 18.9474C39.3289 18.9072 39.4495 18.875 39.5139 18.8509L39.5018 20.6727C39.357 20.729 39.164 20.7813 38.9227 20.8296C38.6814 20.8859 38.3758 20.914 38.0058 20.914C37.5473 20.914 37.121 20.8054 36.7269 20.5883C36.3328 20.3711 36.015 20.0091 35.7738 19.5024C35.5325 18.9876 35.4118 18.2959 35.4118 17.4272V4.44538ZM46.5839 19.0922C47.0102 19.0922 47.3963 19.0077 47.7422 18.8388C48.0961 18.6619 48.3856 18.3884 48.6108 18.0184C48.836 17.6404 48.9647 17.1497 48.9969 16.5465H50.9997C50.9675 17.4152 50.7463 18.1793 50.3361 18.8388C49.934 19.4903 49.4031 20.0011 48.7436 20.3711C48.092 20.733 47.3722 20.914 46.5839 20.914C45.7394 20.914 45.0034 20.7773 44.376 20.5038C43.7567 20.2303 43.2419 19.8362 42.8317 19.3214C42.4296 18.7986 42.1279 18.1672 41.9269 17.4272C41.7258 16.6792 41.6252 15.8306 41.6252 14.8815V13.4096C41.6252 12.4605 41.7258 11.616 41.9269 10.876C42.1279 10.128 42.4296 9.49656 42.8317 8.98179C43.2419 8.45898 43.7567 8.06083 44.376 7.78736C45.0034 7.51389 45.7394 7.37715 46.5839 7.37715C47.4687 7.37715 48.2328 7.56617 48.8763 7.94421C49.5278 8.3142 50.0345 8.8531 50.3964 9.56091C50.7664 10.2607 50.9675 11.1092 50.9997 12.1066H48.9969C48.9647 11.4631 48.8481 10.9283 48.647 10.502C48.4459 10.0676 48.1725 9.7459 47.8266 9.53678C47.4808 9.31961 47.0665 9.21102 46.5839 9.21102C46.0209 9.21102 45.5544 9.31157 45.1844 9.51265C44.8224 9.70569 44.5369 9.9872 44.3278 10.3572C44.1187 10.7272 43.9699 11.1696 43.8814 11.6843C43.801 12.1991 43.7607 12.7742 43.7607 13.4096V14.8815C43.7607 15.517 43.801 16.0961 43.8814 16.6189C43.9699 17.1337 44.1146 17.576 44.3157 17.946C44.5248 18.316 44.8144 18.6016 45.1844 18.8026C45.5544 18.9957 46.0209 19.0922 46.5839 19.0922ZM55.6085 2.14098V20.6727H53.473V2.14098H55.6085ZM55.0897 13.6509L54.221 13.6147C54.213 12.7219 54.3135 11.8975 54.5227 11.1414C54.7398 10.3773 55.0455 9.71373 55.4396 9.1507C55.8417 8.58767 56.3203 8.15333 56.8753 7.84769C57.4303 7.534 58.0456 7.37715 58.7212 7.37715C59.2521 7.37715 59.7347 7.46563 60.169 7.64258C60.6034 7.81149 60.9734 8.08496 61.279 8.463C61.5847 8.84103 61.8179 9.33167 61.9788 9.93492C62.1477 10.5301 62.2321 11.258 62.2321 12.1187V20.6727H60.0966V12.0945C60.0966 11.4109 60.0202 10.8639 59.8674 10.4537C59.7226 10.0355 59.4974 9.73384 59.1918 9.54884C58.8942 9.3558 58.5161 9.25928 58.0577 9.25928C57.6394 9.25928 57.2493 9.37591 56.8874 9.60917C56.5254 9.84242 56.2077 10.1642 55.9342 10.5744C55.6688 10.9846 55.4597 11.4551 55.3069 11.986C55.1621 12.5088 55.0897 13.0638 55.0897 13.6509ZM74.8159 18.7785V20.6727H67.5286V18.7785H74.8159ZM67.9268 3.10617V20.6727H65.7068V3.10617H67.9268ZM79.4609 7.61845V20.6727H77.3374V7.61845H79.4609ZM77.2168 4.15582C77.2168 3.79387 77.3173 3.48823 77.5184 3.23888C77.7195 2.98954 78.0211 2.86487 78.4233 2.86487C78.8254 2.86487 79.1271 2.98954 79.3281 3.23888C79.5373 3.48823 79.6418 3.79387 79.6418 4.15582C79.6418 4.50168 79.5373 4.79928 79.3281 5.04862C79.1271 5.28992 78.8254 5.41057 78.4233 5.41057C78.0211 5.41057 77.7195 5.28992 77.5184 5.04862C77.3173 4.79928 77.2168 4.50168 77.2168 4.15582ZM89.1731 17.3307C89.1731 17.0009 89.0927 16.7114 88.9318 16.462C88.771 16.2127 88.5055 15.9714 88.1355 15.7382C87.7736 15.5049 87.283 15.2556 86.6636 14.9901C86.0604 14.7408 85.5175 14.4955 85.0349 14.2542C84.5603 14.0048 84.1581 13.7354 83.8284 13.4458C83.4986 13.1563 83.2452 12.8225 83.0683 12.4444C82.8994 12.0583 82.8149 11.6039 82.8149 11.0811C82.8149 10.5583 82.9114 10.0757 83.1045 9.6333C83.3055 9.18287 83.5871 8.78875 83.949 8.45093C84.311 8.11312 84.7453 7.85171 85.252 7.66671C85.7588 7.47367 86.3258 7.37715 86.9532 7.37715C87.846 7.37715 88.6061 7.55009 89.2334 7.89595C89.8608 8.24181 90.3394 8.71636 90.6692 9.31961C91.007 9.91481 91.1759 10.5864 91.1759 11.3345H89.0525C89.0525 10.9725 88.972 10.6307 88.8112 10.3089C88.6503 9.9872 88.413 9.72579 88.0993 9.52471C87.7857 9.31559 87.4036 9.21102 86.9532 9.21102C86.4786 9.21102 86.0925 9.29548 85.7949 9.46439C85.4973 9.6333 85.2802 9.85449 85.1434 10.128C85.0147 10.3934 84.9504 10.687 84.9504 11.0087C84.9504 11.25 84.9826 11.4591 85.0469 11.6361C85.1193 11.805 85.24 11.9658 85.4089 12.1187C85.5778 12.2635 85.807 12.4163 86.0966 12.5771C86.3942 12.73 86.7722 12.9069 87.2307 13.108C88.1154 13.4539 88.8594 13.8037 89.4627 14.1576C90.0659 14.5115 90.5244 14.9258 90.8381 15.4003C91.1518 15.8749 91.3086 16.462 91.3086 17.1618C91.3086 17.7329 91.2041 18.2517 90.9949 18.7182C90.7938 19.1767 90.5043 19.5708 90.1263 19.9006C89.7482 20.2303 89.2938 20.4837 88.7629 20.6606C88.2401 20.8296 87.6529 20.914 87.0014 20.914C86.0202 20.914 85.1877 20.721 84.504 20.3349C83.8284 19.9408 83.3136 19.43 82.9597 18.8026C82.6138 18.1672 82.4409 17.4876 82.4409 16.7637H84.5764C84.6005 17.375 84.7373 17.8495 84.9866 18.1873C85.244 18.5251 85.5536 18.7584 85.9156 18.8871C86.2775 19.0158 86.6395 19.0801 87.0014 19.0801C87.476 19.0801 87.8741 19.0118 88.1959 18.875C88.5176 18.7303 88.7589 18.5251 88.9198 18.2597C89.0887 17.9943 89.1731 17.6846 89.1731 17.3307ZM98.8733 7.61845V9.33167H92.7805V7.61845H98.8733ZM94.7713 4.44538H96.9067V17.4393C96.9067 17.8817 96.959 18.2155 97.0636 18.4407C97.1762 18.6659 97.317 18.8147 97.4859 18.8871C97.6548 18.9595 97.8357 18.9957 98.0288 18.9957C98.1736 18.9957 98.3344 18.9796 98.5114 18.9474C98.6883 18.9072 98.809 18.875 98.8733 18.8509L98.8613 20.6727C98.7165 20.729 98.5234 20.7813 98.2821 20.8296C98.0409 20.8859 97.7352 20.914 97.3652 20.914C96.9067 20.914 96.4805 20.8054 96.0863 20.5883C95.6922 20.3711 95.3745 20.0091 95.1332 19.5024C94.8919 18.9876 94.7713 18.2959 94.7713 17.4272V4.44538ZM103.711 2.14098V20.6727H101.588V2.14098H103.711ZM110.118 19.3214L113.025 7.61845H115.294L110.987 22.6875C110.882 23.0093 110.741 23.3551 110.564 23.7251C110.395 24.1032 110.178 24.4611 109.913 24.7989C109.647 25.1367 109.33 25.4102 108.96 25.6193C108.59 25.8365 108.155 25.9451 107.657 25.9451C107.504 25.9451 107.307 25.921 107.065 25.8727C106.832 25.8244 106.663 25.7842 106.559 25.752V23.9423C106.607 23.9503 106.683 23.9584 106.788 23.9664C106.892 23.9825 106.969 23.9906 107.017 23.9906C107.435 23.9906 107.789 23.9222 108.079 23.7855C108.376 23.6568 108.63 23.4356 108.839 23.1219C109.048 22.8162 109.225 22.394 109.37 21.8551L110.118 19.3214ZM108.236 7.61845L110.83 17.753L111.385 20.1057L109.864 20.9261L105.907 7.61845H108.236Z" fill="#32E0C4"/>
<path fill-rule="evenodd" clip-rule="evenodd" d="M1.99017 0.910356L0.127319 1.23883L0.280048 2.10499L0.585377 3.8366L0.890777 5.56862L1.19611 7.30023L1.50179 9.03384L1.80712 10.7654L2.02277 11.9885L1.89545 12.0109L2.20078 13.7425L2.3281 13.7201L3.33398 19.4247L3.63931 21.1563L3.79204 22.0225L5.65489 21.694L5.50216 20.8279L7.36487 20.4994L7.51761 21.3657L9.38046 21.0372L9.22772 20.1709L9.22787 20.1709L8.92254 18.4393L8.92239 18.4393L8.61689 16.7068L8.61704 16.7068L8.31171 14.9752L8.31156 14.9752L7.39552 9.78006L7.39567 9.78004L7.09034 8.04843L7.09019 8.04845L6.78451 6.31485L6.78466 6.31482L6.47933 4.58321L6.47918 4.58324L6.17378 2.85122L6.17393 2.85119L5.8686 1.11958L5.86845 1.11961L5.71575 0.253567L3.8529 0.582038L4.0056 1.44808L2.1429 1.77652L1.99017 0.910356ZM2.44823 3.50813L2.75363 5.24015L4.61633 4.91171L4.31093 3.17969L2.44823 3.50813ZM3.36464 8.70537L3.05896 6.97176L4.92166 6.64332L5.22734 8.37692L3.36464 8.70537ZM3.66997 10.437L3.88562 11.66L5.74832 11.3315L5.53267 10.1085L3.66997 10.437ZM4.58601 15.6321L4.19095 13.3916L6.05365 13.0632L6.44871 15.3036L4.58601 15.6321ZM4.89134 17.3637L5.19683 19.0963L7.05954 18.7678L6.75404 17.0353L4.89134 17.3637Z" fill="#32E0C4"/>
</svg>
