<svg width="16" height="16" viewBox="0 0 16 16" fill="none" xmlns="http://www.w3.org/2000/svg">
<path d="M7 2H5C4.54037 2 4.08525 2.09053 3.66061 2.26642C3.23597 2.44231 2.85013 2.70012 2.52513 3.02513C2.20012 3.35013 1.94231 3.73597 1.76642 4.16061C1.59053 4.58525 1.5 5.04037 1.5 5.5C1.5 5.95963 1.59053 6.41475 1.76642 6.83939C1.94231 7.26403 2.20012 7.64987 2.52513 7.97487C2.85013 8.29988 3.23597 8.55769 3.66061 8.73358C4.08525 8.90947 4.54037 9 5 9H7V12H2.5V14H7V16H9V14H11C11.9283 14 12.8185 13.6313 13.4749 12.9749C14.1313 12.3185 14.5 11.4283 14.5 10.5C14.5 9.57174 14.1313 8.6815 13.4749 8.02513C12.8185 7.36875 11.9283 7 11 7H9V4H13.5V2H9V0H7V2ZM9 9H11C11.3978 9 11.7794 9.15804 12.0607 9.43934C12.342 9.72064 12.5 10.1022 12.5 10.5C12.5 10.8978 12.342 11.2794 12.0607 11.5607C11.7794 11.842 11.3978 12 11 12H9V9ZM7 7H5C4.80302 7 4.60796 6.9612 4.42597 6.88582C4.24399 6.81044 4.07863 6.69995 3.93934 6.56066C3.80005 6.42137 3.68956 6.25601 3.61418 6.07403C3.5388 5.89204 3.5 5.69698 3.5 5.5C3.5 5.30302 3.5388 5.10796 3.61418 4.92597C3.68956 4.74399 3.80005 4.57863 3.93934 4.43934C4.07863 4.30005 4.24399 4.18956 4.42597 4.11418C4.60796 4.0388 4.80302 4 5 4H7V7Z" fill="#D0D0D0"/>
</svg>
