<svg width="16" height="15" viewBox="0 0 16 15" fill="none" xmlns="http://www.w3.org/2000/svg">
<path d="M15.36 6.24952H6.24778L14.8801 4.02362C14.9618 4.00259 15.0384 3.96597 15.1056 3.91586C15.1727 3.86576 15.229 3.80316 15.2713 3.73169C15.3135 3.66021 15.3408 3.58128 15.3517 3.49943C15.3625 3.41758 15.3567 3.33445 15.3344 3.25483L14.6817 0.910952C14.5918 0.595613 14.3784 0.327534 14.0876 0.164775C13.7969 0.00201696 13.4522 -0.0423175 13.1282 0.0413738L0.945703 3.18217C0.783496 3.22329 0.631318 3.29561 0.49808 3.39489C0.364841 3.49416 0.25322 3.6184 0.16975 3.76033C0.0857709 3.9005 0.0315171 4.05573 0.0102159 4.2168C-0.0110852 4.37786 0.00100146 4.54147 0.0457571 4.69788L0.640921 6.84018V13.7499C0.640921 14.0815 0.77577 14.3994 1.0158 14.6339C1.25583 14.8683 1.58139 15 1.92084 15H14.7201C15.0595 15 15.3851 14.8683 15.6251 14.6339C15.8652 14.3994 16 14.0815 16 13.7499V6.87456C16 6.70879 15.9326 6.54981 15.8126 6.43259C15.6925 6.31538 15.5298 6.24952 15.36 6.24952ZM13.453 1.24925L13.9329 2.97356L12.1234 3.44234L9.87397 2.17352L13.453 1.24925ZM8.11807 2.62433L10.3675 3.89315L7.41252 4.65491L5.16305 3.38765L8.11807 2.62433ZM1.76645 6.11045L1.28648 4.38536L3.40636 3.83846L5.65582 5.10884L1.76645 6.11045ZM14.7201 13.7499H1.92084V7.49959H14.7201V13.7499Z" fill="#D0D0D0"/>
</svg>
