<svg width="21" height="20" viewBox="0 0 21 20" fill="none" xmlns="http://www.w3.org/2000/svg">
<path d="M15.5 18.3334C14.8056 18.3334 14.2153 18.0903 13.7292 17.6042C13.2431 17.1181 13 16.5278 13 15.8334C13 15.7361 13.0069 15.6353 13.0208 15.5309C13.0347 15.4264 13.0556 15.3328 13.0833 15.25L7.20833 11.8334C6.97222 12.0417 6.70833 12.205 6.41667 12.3234C6.125 12.4417 5.81944 12.5006 5.5 12.5C4.80556 12.5 4.21528 12.257 3.72917 11.7709C3.24306 11.2847 3 10.6945 3 10C3 9.30558 3.24306 8.7153 3.72917 8.22919C4.21528 7.74308 4.80556 7.50002 5.5 7.50002C5.81944 7.50002 6.125 7.55919 6.41667 7.67752C6.70833 7.79585 6.97222 7.95891 7.20833 8.16669L13.0833 4.75002C13.0556 4.66669 13.0347 4.57308 13.0208 4.46919C13.0069 4.3653 13 4.26446 13 4.16669C13 3.47224 13.2431 2.88196 13.7292 2.39585C14.2153 1.90974 14.8056 1.66669 15.5 1.66669C16.1944 1.66669 16.7847 1.90974 17.2708 2.39585C17.7569 2.88196 18 3.47224 18 4.16669C18 4.86113 17.7569 5.45141 17.2708 5.93752C16.7847 6.42363 16.1944 6.66669 15.5 6.66669C15.1806 6.66669 14.875 6.6078 14.5833 6.49002C14.2917 6.37224 14.0278 6.20891 13.7917 6.00002L7.91667 9.41669C7.94444 9.50002 7.96528 9.59391 7.97917 9.69835C7.99306 9.8028 8 9.90335 8 10C8 10.0967 7.99306 10.1975 7.97917 10.3025C7.96528 10.4075 7.94444 10.5011 7.91667 10.5834L13.7917 14C14.0278 13.7917 14.2917 13.6286 14.5833 13.5109C14.875 13.3931 15.1806 13.3339 15.5 13.3334C16.1944 13.3334 16.7847 13.5764 17.2708 14.0625C17.7569 14.5486 18 15.1389 18 15.8334C18 16.5278 17.7569 17.1181 17.2708 17.6042C16.7847 18.0903 16.1944 18.3334 15.5 18.3334Z" fill="#F8F8F8"/>
</svg>
