<svg width="177" height="24" viewBox="0 0 177 24" fill="none" xmlns="http://www.w3.org/2000/svg">
<path d="M124.195 22.897H165.561C167.063 22.897 168.551 22.6011 169.939 22.0262C171.326 21.4514 172.587 20.6088 173.65 19.5466C174.712 18.4844 175.554 17.2234 176.129 15.8356C176.704 14.4478 177 12.9604 177 11.4582C177.003 9.9544 176.709 8.46486 176.135 7.0748C175.561 5.68474 174.719 4.42145 173.657 3.3572C172.594 2.29296 171.332 1.44865 169.943 0.872579C168.554 0.296513 167.065 -2.16734e-06 165.561 0L124.195 0C122.691 -2.16734e-06 121.202 0.296513 119.813 0.872579C118.424 1.44865 117.162 2.29296 116.1 3.3572C115.037 4.42145 114.195 5.68474 113.622 7.0748C113.048 8.46486 112.754 9.9544 112.756 11.4582C112.756 14.4919 113.962 17.4014 116.107 19.5466C118.252 21.6918 121.161 22.897 124.195 22.897ZM6.53829 22.9293H11.5877V4.4797H18.126V0H0V4.46675H6.53829V22.9293ZM24.729 22.9293H29.7784V5.34068H29.8431L35.6369 22.9164H39.5211L45.5091 5.34068H45.5738V22.9164H50.6232V0H43.0168L37.7085 14.9539H37.6437L32.3678 0H24.729V22.9293ZM57.7053 0.0776827H65.2793C67.0427 0.0803928 68.7992 0.297777 70.51 0.725038C72.068 1.09464 73.5361 1.7726 74.8278 2.71889C76.0772 3.65826 77.0828 4.8837 77.7604 6.2923C78.5263 7.96581 78.8962 9.79333 78.8414 11.633C78.8765 13.3278 78.5175 15.0075 77.7927 16.5399C77.1179 17.9189 76.1502 19.134 74.9573 20.1004C73.7363 21.0794 72.3417 21.8195 70.8466 22.282C69.2663 22.7838 67.6171 23.035 65.9591 23.0264H57.7053V0.0776827ZM62.7547 18.3331H65.3441C66.4332 18.3405 67.5194 18.2211 68.5809 17.9771C69.528 17.7848 70.4237 17.3943 71.2091 16.8312C71.9588 16.2639 72.5551 15.5185 72.944 14.6626C73.3986 13.6272 73.6196 12.5045 73.5914 11.374C73.6106 10.3612 73.3887 9.35823 72.944 8.44799C72.5403 7.64135 71.958 6.93733 71.2415 6.3894C70.4968 5.83634 69.6562 5.42591 68.7621 5.17884C67.776 4.90311 66.7564 4.76586 65.7325 4.77101H62.7547V18.3331ZM86.1566 0.0776827H94.7017C95.7045 0.0781716 96.7061 0.149559 97.6989 0.29131C98.6407 0.413311 99.5541 0.69807 100.398 1.13287C101.187 1.54209 101.856 2.14875 102.34 2.89368C102.878 3.8027 103.136 4.84927 103.085 5.90388C103.129 7.07825 102.745 8.22867 102.004 9.14066C101.247 10.0169 100.25 10.6517 99.136 10.9662V11.005C99.8529 11.1074 100.548 11.3261 101.195 11.6524C101.792 11.9522 102.329 12.358 102.781 12.85C103.228 13.3428 103.573 13.9192 103.797 14.5461C104.038 15.2099 104.159 15.9114 104.153 16.6176C104.192 17.6813 103.922 18.7335 103.376 19.6472C102.868 20.4426 102.181 21.1078 101.369 21.5893C100.516 22.1015 99.5811 22.4628 98.6052 22.6574C97.5989 22.8732 96.5724 22.9817 95.5432 22.9811H86.1566V0.0776827ZM91.2059 9.23777H94.8635C95.2513 9.23988 95.6381 9.19642 96.0158 9.10829C96.377 9.02986 96.7212 8.88735 97.0321 8.68751C97.3355 8.49188 97.5866 8.22524 97.7636 7.91069C97.9533 7.55224 98.047 7.15081 98.0355 6.74545C98.0563 6.33345 97.9574 5.92425 97.7507 5.56726C97.5498 5.26136 97.2762 5.01003 96.9545 4.83575C96.5937 4.65463 96.2073 4.53017 95.8086 4.46675C95.414 4.39044 95.013 4.35143 94.611 4.35023H91.18L91.2059 9.23777ZM91.2059 18.7215H95.7374C96.1359 18.7226 96.5332 18.6792 96.9221 18.5921C97.3086 18.513 97.6758 18.359 98.0032 18.1389C98.3298 17.9234 98.6022 17.6354 98.7994 17.2973C99.0121 16.9114 99.1171 16.4754 99.1037 16.035C99.1209 15.5704 98.9793 15.1137 98.7023 14.7403C98.4305 14.4043 98.0788 14.1417 97.6795 13.9764C97.2647 13.8036 96.8296 13.684 96.3848 13.6204C95.9451 13.5579 95.5017 13.5255 95.0577 13.5233H91.2383L91.2059 18.7215Z" fill="url(#paint0_linear_140_95)"/>
<defs>
<linearGradient id="paint0_linear_140_95" x1="0" y1="11.497" x2="177" y2="11.497" gradientUnits="userSpaceOnUse">
<stop stop-color="#90CEA1"/>
<stop offset="0.56" stop-color="#3CBEC9"/>
<stop offset="1" stop-color="#00B3E5"/>
</linearGradient>
</defs>
</svg>
