<svg width="16" height="4" viewBox="0 0 16 4" fill="none" xmlns="http://www.w3.org/2000/svg">
<path d="M4.08887 1.71924C4.08887 0.85498 3.40039 0.173828 2.52148 0.173828C1.67188 0.173828 0.976074 0.862305 0.976074 1.71924C0.976074 2.56885 1.67188 3.26465 2.52148 3.26465C3.38574 3.26465 4.08887 2.56885 4.08887 1.71924ZM9.53809 1.71924C9.53809 0.85498 8.86426 0.173828 8 0.173828C7.14307 0.173828 6.45459 0.862305 6.45459 1.71924C6.45459 2.56885 7.14307 3.26465 8 3.26465C8.84229 3.26465 9.53809 2.56885 9.53809 1.71924ZM15.0239 1.71924C15.0239 0.85498 14.3354 0.173828 13.4712 0.173828C12.6069 0.173828 11.9111 0.862305 11.9111 1.71924C11.9111 2.56885 12.6069 3.26465 13.4712 3.26465C14.3208 3.26465 15.0239 2.56885 15.0239 1.71924Z" fill="#EAEAEA"/>
</svg>
