<svg width="14" height="14" viewBox="0 0 14 14" fill="none" xmlns="http://www.w3.org/2000/svg">
<path d="M7.00732 6.81445C8.71387 6.81445 10.0835 5.31299 10.0835 3.44531C10.0835 1.62158 8.70654 0.156738 7.00732 0.156738C5.31543 0.156738 3.92383 1.63623 3.93115 3.45264C3.93848 5.32031 5.30078 6.81445 7.00732 6.81445ZM7.00732 5.95752C5.81348 5.95752 4.83936 4.86621 4.83936 3.45264C4.82471 2.09766 5.81348 1.021 7.00732 1.021C8.20117 1.021 9.17529 2.08301 9.17529 3.44531C9.17529 4.85156 8.2085 5.95752 7.00732 5.95752ZM2.26855 13.5308H11.7241C12.8008 13.5308 13.3062 13.1865 13.3062 12.4468C13.3062 10.5352 10.9038 7.81787 7 7.81787C3.08887 7.81787 0.686523 10.5352 0.686523 12.4468C0.686523 13.1865 1.19922 13.5308 2.26855 13.5308ZM2.0415 12.6665C1.70459 12.6665 1.59473 12.5859 1.59473 12.3516C1.59473 10.9673 3.55029 8.6748 7 8.6748C10.4424 8.6748 12.4053 10.9673 12.4053 12.3516C12.4053 12.5859 12.2881 12.6665 11.9585 12.6665H2.0415Z" fill="#EAEAEA"/>
</svg>
