<svg width="18" height="16" viewBox="0 0 18 16" fill="none" xmlns="http://www.w3.org/2000/svg">
<path d="M4.04883 15.7358H13.9146C14.8887 15.7358 15.438 15.2012 15.438 14.2417V6.91748L16.5732 7.86963C16.6904 7.96484 16.8076 8.04541 16.9614 8.04541C17.2324 8.04541 17.4448 7.88428 17.4448 7.62061C17.4448 7.44482 17.3862 7.33496 17.2544 7.2251L15.438 5.69434V2.64746C15.438 2.38379 15.2622 2.21533 14.9985 2.21533H14.3101C14.0537 2.21533 13.8706 2.38379 13.8706 2.64746V4.37598L9.79834 0.948242C9.30762 0.530762 8.71436 0.530762 8.21631 0.948242L0.738281 7.2251C0.606445 7.33496 0.547852 7.4668 0.547852 7.60596C0.547852 7.83301 0.730957 8.04541 1.03125 8.04541C1.18506 8.04541 1.30957 7.96484 1.41943 7.86963L2.53271 6.93945V14.2417C2.53271 15.2012 3.08203 15.7358 4.04883 15.7358ZM11.0654 9.75195C11.0654 9.44434 10.8677 9.24658 10.5601 9.24658H7.43262C7.125 9.24658 6.91992 9.44434 6.91992 9.75195V14.835H4.23926C3.70459 14.835 3.44092 14.564 3.44092 14.022V6.17773L8.71436 1.75391C8.89746 1.59277 9.09521 1.57812 9.29297 1.75391L14.5298 6.15576V14.022C14.5298 14.564 14.2661 14.835 13.7241 14.835H11.0654V9.75195Z" fill="#EAEAEA"/>
</svg>
