<svg width="18" height="16" viewBox="0 0 18 16" fill="none" xmlns="http://www.w3.org/2000/svg">
<path d="M2 2.91667C2 3.07138 2.06146 3.21975 2.17085 3.32915C2.28025 3.43854 2.42862 3.5 2.58333 3.5H15.4167C15.5714 3.5 15.7197 3.43854 15.8291 3.32915C15.9385 3.21975 16 3.07138 16 2.91667C16 2.76196 15.9385 2.61358 15.8291 2.50419C15.7197 2.39479 15.5714 2.33333 15.4167 2.33333H2.58333C2.42862 2.33333 2.28025 2.39479 2.17085 2.50419C2.06146 2.61358 2 2.76196 2 2.91667ZM4.33333 0.583333C4.33333 0.738043 4.39479 0.886416 4.50419 0.995812C4.61358 1.10521 4.76196 1.16667 4.91667 1.16667H13.0833C13.238 1.16667 13.3864 1.10521 13.4958 0.995812C13.6052 0.886416 13.6667 0.738043 13.6667 0.583333C13.6667 0.428624 13.6052 0.280251 13.4958 0.170854C13.3864 0.0614581 13.238 0 13.0833 0H4.91667C4.76196 0 4.61358 0.0614581 4.50419 0.170854C4.39479 0.280251 4.33333 0.428624 4.33333 0.583333ZM7.55917 7.08867C7.47087 7.03348 7.3694 7.00293 7.26531 7.0002C7.16122 6.99747 7.05829 7.02265 6.96722 7.07312C6.87614 7.1236 6.80024 7.19754 6.74739 7.28726C6.69454 7.37697 6.66667 7.4792 6.66667 7.58333V13.4167C6.66667 13.5208 6.69454 13.623 6.74739 13.7127C6.80024 13.8025 6.87614 13.8764 6.96722 13.9269C7.05829 13.9774 7.16122 14.0025 7.26531 13.9998C7.3694 13.9971 7.47087 13.9665 7.55917 13.9113L12.2258 10.9947C12.3097 10.9422 12.3789 10.8693 12.4269 10.7828C12.4748 10.6962 12.5 10.5989 12.5 10.5C12.5 10.4011 12.4748 10.3038 12.4269 10.2172C12.3789 10.1307 12.3097 10.0578 12.2258 10.0053L7.55917 7.08867Z" fill="#EAEAEA"/>
<path d="M1.6875 16C1.23995 16 0.810725 15.8262 0.494257 15.5167C0.17779 15.2073 0 14.7876 0 14.35L0 6.65C0 6.21239 0.17779 5.79271 0.494257 5.48327C0.810725 5.17384 1.23995 5 1.6875 5H16.3125C16.7601 5 17.1893 5.17384 17.5057 5.48327C17.8222 5.79271 18 6.21239 18 6.65V14.35C18 14.7876 17.8222 15.2073 17.5057 15.5167C17.1893 15.8262 16.7601 16 16.3125 16H1.6875ZM16.3125 14.9C16.4617 14.9 16.6048 14.8421 16.7102 14.7389C16.8157 14.6358 16.875 14.4959 16.875 14.35V6.65C16.875 6.50413 16.8157 6.36424 16.7102 6.26109C16.6048 6.15795 16.4617 6.1 16.3125 6.1H1.6875C1.53832 6.1 1.39524 6.15795 1.28975 6.26109C1.18426 6.36424 1.125 6.50413 1.125 6.65V14.35C1.125 14.4959 1.18426 14.6358 1.28975 14.7389C1.39524 14.8421 1.53832 14.9 1.6875 14.9H16.3125Z" fill="#EAEAEA"/>
</svg>
