<svg width="19" height="16" viewBox="0 0 19 16" fill="none" xmlns="http://www.w3.org/2000/svg">
<path d="M15.4684 10.9944C15.6904 11.2167 16.0484 11.2276 16.2745 11.0096C17.2347 10.0835 17.9585 9.13679 18.418 8.46761C18.8033 7.90658 18.8048 7.18604 18.4198 6.62483C17.1852 4.82504 14.0356 1.01416 9.50014 1.01416C8.66083 1.01635 7.82846 1.14564 7.03099 1.39611C6.61726 1.52606 6.51778 2.04361 6.82422 2.35045V2.35045C6.99332 2.51977 7.24451 2.57358 7.47363 2.50454C8.13036 2.30667 8.81289 2.20446 9.50014 2.20166C12.0176 2.20166 14.1064 3.58866 15.6371 5.11935C16.2774 5.76171 16.8596 6.45906 17.3771 7.20321C17.5202 7.40894 17.5191 7.68114 17.3768 7.88741V7.88741C16.979 8.45741 16.3912 9.21741 15.6371 9.97147C15.5873 10.0215 15.5368 10.0713 15.4858 10.1209C15.2408 10.3587 15.2271 10.7528 15.4684 10.9944V10.9944Z" fill="#5B5B5B"/>
<path d="M13.415 8.94196C13.68 8.20078 13.7291 7.39958 13.5565 6.63159C13.384 5.8636 12.9969 5.1604 12.4403 4.60381C11.8837 4.04722 11.1805 3.66013 10.4125 3.48757C9.64451 3.31502 8.84331 3.36409 8.10212 3.62909L9.07944 4.6064C9.5358 4.54108 10.0011 4.58294 10.4385 4.72867C10.8759 4.8744 11.2733 5.11999 11.5993 5.44598C11.9253 5.77197 12.1709 6.1694 12.3166 6.60678C12.4623 7.04416 12.5042 7.50947 12.4389 7.96584L13.415 8.94196ZM9.92019 10.4845L10.8963 11.4607C10.1551 11.7256 9.35392 11.7747 8.58593 11.6022C7.81795 11.4296 7.11475 11.0425 6.55816 10.4859C6.00157 9.92934 5.61448 9.22614 5.44192 8.45815C5.26936 7.69016 5.31844 6.88896 5.58344 6.14778L6.56075 7.12509C6.49543 7.58146 6.53729 8.04677 6.68302 8.48415C6.82874 8.92153 7.07433 9.31896 7.40032 9.64495C7.72631 9.97094 8.12375 10.2165 8.56113 10.3623C8.99851 10.508 9.46382 10.5498 9.92019 10.4845Z" fill="#5B5B5B"/>
<path d="M3.97812 4.541C3.76437 4.731 3.55933 4.92377 3.363 5.11931C2.72274 5.76168 2.14053 6.45903 1.623 7.20318C1.48021 7.40851 1.48309 7.68028 1.62331 7.88738V7.88738C2.02112 8.45738 2.60894 9.21738 3.363 9.97144C4.89369 11.5021 6.98369 12.8891 9.5 12.8891C10.2108 12.8891 10.8867 12.7787 11.5264 12.5851C11.7555 12.5157 12.0067 12.5699 12.1758 12.7394V12.7394C12.4824 13.0468 12.3826 13.5648 11.9684 13.6949C11.1712 13.9452 10.3391 14.0744 9.5 14.0766C4.96395 14.0766 1.81405 10.2647 0.579804 8.46521C0.195138 7.90438 0.196418 7.18442 0.581166 6.62365C1.03838 5.95725 1.75781 5.01556 2.71247 4.09355C2.94571 3.86829 3.31532 3.87964 3.54444 4.10908L3.97575 4.541C3.97641 4.54166 3.97747 4.54166 3.97812 4.541V4.541ZM16.625 14.6704C16.3928 14.9025 16.0164 14.9025 15.7842 14.6704L2.375 1.26113C2.14283 1.02896 2.14283 0.652542 2.375 0.420375V0.420375C2.60717 0.188208 2.98358 0.188208 3.21575 0.420375L16.625 13.8296C16.8572 14.0618 16.8572 14.4382 16.625 14.6704V14.6704Z" fill="#5B5B5B"/>
</svg>
