<svg width="19" height="13" viewBox="0 0 19 13" fill="none" xmlns="http://www.w3.org/2000/svg">
<path d="M18.4152 7.42274C18.803 6.8607 18.803 6.1393 18.4152 5.57726C17.1774 3.78339 14.0299 0 9.5 0C4.97011 0 1.82262 3.78339 0.584846 5.57726C0.197037 6.1393 0.197037 6.8607 0.584846 7.42274C1.82262 9.21661 4.97011 13 9.5 13C14.0299 13 17.1774 9.21661 18.4152 7.42274ZM2.16544 7.56895C1.66937 6.94094 1.6694 6.05906 2.16573 5.43126C2.53824 4.96008 2.93838 4.51071 3.36419 4.08555C4.8925 2.56218 6.9825 1.18182 9.5 1.18182C12.0175 1.18182 14.1063 2.56218 15.637 4.08555C16.2773 4.72484 16.8595 5.41885 17.377 6.15943C17.5199 6.36401 17.5189 6.63525 17.3767 6.84036V6.84036C16.9789 7.40764 16.3911 8.164 15.637 8.91445C14.1063 10.4378 12.0163 11.8182 9.5 11.8182C6.98369 11.8182 4.89369 10.4378 3.363 8.91445C2.93725 8.48935 2.53757 8.04005 2.16544 7.56895Z" fill="#5B5B5B"/>
<path d="M9.5 3.28571C8.64752 3.28571 7.82995 3.62436 7.22716 4.22716C6.62436 4.82995 6.28571 5.64752 6.28571 6.5C6.28571 7.35248 6.62436 8.17005 7.22716 8.77284C7.82995 9.37564 8.64752 9.71429 9.5 9.71429C10.3525 9.71429 11.17 9.37564 11.7728 8.77284C12.3756 8.17005 12.7143 7.35248 12.7143 6.5C12.7143 5.64752 12.3756 4.82995 11.7728 4.22716C11.17 3.62436 10.3525 3.28571 9.5 3.28571ZM5 6.5C5 5.30653 5.47411 4.16193 6.31802 3.31802C7.16193 2.47411 8.30653 2 9.5 2C10.6935 2 11.8381 2.47411 12.682 3.31802C13.5259 4.16193 14 5.30653 14 6.5C14 7.69347 13.5259 8.83807 12.682 9.68198C11.8381 10.5259 10.6935 11 9.5 11C8.30653 11 7.16193 10.5259 6.31802 9.68198C5.47411 8.83807 5 7.69347 5 6.5Z" fill="#5B5B5B"/>
</svg>
