<svg width="20" height="21" viewBox="0 0 20 21" fill="none" xmlns="http://www.w3.org/2000/svg">
<path d="M19.8055 8.5559H19V8.5144H10V12.5144H15.6515C14.827 14.8429 12.6115 16.5144 10 16.5144C6.6865 16.5144 4 13.8279 4 10.5144C4 7.2009 6.6865 4.5144 10 4.5144C11.5295 4.5144 12.921 5.0914 13.9805 6.0339L16.809 3.2054C15.023 1.5409 12.634 0.514404 10 0.514404C4.4775 0.514404 0 4.9919 0 10.5144C0 16.0369 4.4775 20.5144 10 20.5144C15.5225 20.5144 20 16.0369 20 10.5144C20 9.8439 19.931 9.1894 19.8055 8.5559Z" fill="#FFC107"/>
<path d="M1.15283 5.8599L4.43833 8.2694C5.32733 6.0684 7.48033 4.5144 9.99983 4.5144C11.5293 4.5144 12.9208 5.0914 13.9803 6.0339L16.8088 3.2054C15.0228 1.5409 12.6338 0.514404 9.99983 0.514404C6.15883 0.514404 2.82783 2.6829 1.15283 5.8599Z" fill="#FF3D00"/>
<path d="M10.0002 20.5144C12.5832 20.5144 14.9302 19.5259 16.7047 17.9184L13.6097 15.2994C12.5719 16.0886 11.3039 16.5154 10.0002 16.5144C7.39916 16.5144 5.19066 14.8559 4.35866 12.5414L1.09766 15.0539C2.75266 18.2924 6.11366 20.5144 10.0002 20.5144Z" fill="#4CAF50"/>
<path d="M19.8055 8.5559H19V8.5144H10V12.5144H15.6515C15.2571 13.6226 14.5467 14.591 13.608 15.2999L13.6095 15.2989L16.7045 17.9179C16.4855 18.1169 20 15.5144 20 10.5144C20 9.8439 19.931 9.1894 19.8055 8.5559Z" fill="#1976D2"/>
</svg>
